<svg xmlns="http://www.w3.org/2000/svg" xml:space="preserve" width="2000" height="516" data-id="lg_ng5QKwjCKtmCkLvvSa" data-version="1" viewBox="0 0 2000 516"><g data-padding="20"><g transform="translate(10 9.181)scale(.96441)"><rect width="54.736" height="98.833" x="117.061" y="-49.415" fill="#1ba14d" paint-order="stroke" rx="19" ry="19" transform="translate(141.25 255.05)scale(5.16)"/><rect width="52.391" height="98.833" x="118.233" y="-49.415" fill="#255ce0" paint-order="stroke" rx="19" ry="19" transform="translate(417.67 260.93)scale(5.16)"/><rect width="104.423" height="88.14" x="92.218" y="-44.068" fill="none" rx="0" ry="0" transform="translate(293.11 279.01)scale(5.16)"/><path fill="#fff" d="M784.844 121.113h237.51l4.03 101.04h-7.65q-17.71-53.54-31.4-73.07-13.69-19.52-39.45-19.52h-4.83v264.89h34.21v8.46h-146.93v-8.46h34.21v-264.89h-5.23q-25.76 0-39.85 20.33t-31 72.26h-7.65Zm264.88 8.85v-8.85h209.33l4.03 83.73h-7.25q-14.89-43.48-34.42-59.18-19.52-15.7-58.17-15.7h-11.27v130.84h18.12q19.32 0 32.2-14.09t17.72-38.65h6.03v119.16h-6.84q-6.44-30.19-17.91-43.07-11.48-12.88-31.2-12.88h-18.12v122.78h49.92v8.86h-152.17v-8.86h23.75v-264.09Z"/></g><path fill="transparent" stroke="transparent" d="M719 0h562v516H719z"/></g></svg>