<svg width="175" height="55" viewBox="0 0 175 55" fill="none" xmlns="http://www.w3.org/2000/svg">
<path d="M1.15 37.91C0.87 37.91 0.73 37.7583 0.73 37.455C0.73 37.0583 0.951666 36.5567 1.395 35.95C3.23833 33.3833 5.30333 30.9333 7.59 28.6C9.9 26.2667 12.315 24.0617 14.835 21.985C17.3783 19.885 19.9333 17.925 22.5 16.105V14.425C22.5 12.6983 22.4533 11.275 22.36 10.155C22.29 9.01166 22.1617 8.055 21.975 7.285C21.7417 6.18833 21.2983 5.41833 20.645 4.975C19.9917 4.53167 19.2333 4.31 18.37 4.31C17.81 4.31 17.2267 4.39167 16.62 4.555C16.0133 4.71833 15.4067 4.94 14.8 5.22C13.82 5.66333 12.875 6.34 11.965 7.25C11.055 8.16 10.1917 9.02333 9.375 9.84C9.35167 9.86333 9.29333 9.875 9.2 9.875C9.08333 9.875 8.94333 9.84 8.78 9.77C8.61667 9.67667 8.535 9.53667 8.535 9.35C8.535 9.18667 8.62833 8.97667 8.815 8.72C8.885 8.60333 9.165 8.32333 9.655 7.88C10.1683 7.41333 10.8217 6.88833 11.615 6.305C12.4083 5.72167 13.295 5.15 14.275 4.59C15.255 4.03 16.2583 3.56333 17.285 3.19C18.3117 2.81666 19.3033 2.63 20.26 2.63C20.8667 2.63 21.4383 2.72333 21.975 2.91C22.535 3.09667 23.0367 3.4 23.48 3.82C23.8767 4.17 24.1917 4.87 24.425 5.92C24.6583 6.94667 24.8217 8.195 24.915 9.665C25.0083 11.1117 25.0433 12.6517 25.02 14.285C27.3533 12.6283 29.5233 11.1467 31.53 9.84C33.5367 8.51 35.345 7.27333 36.955 6.13C38.565 4.98667 39.9183 3.87833 41.015 2.805C41.6917 2.15166 42.31 1.66166 42.87 1.335C43.43 1.00833 43.8267 0.844998 44.06 0.844998C44.2467 0.844998 44.34 0.926665 44.34 1.09C44.34 1.23 44.2233 1.46333 43.99 1.79C43.78 2.09333 43.43 2.49 42.94 2.98C42.0767 3.82 40.7583 4.85833 38.985 6.095C37.235 7.30833 35.17 8.70833 32.79 10.295C30.41 11.8817 27.8433 13.6667 25.09 15.65C25.0667 16.4433 25.0433 17.26 25.02 18.1C25.02 18.9167 25.02 19.7217 25.02 20.515C25.02 22.0783 25.055 23.525 25.125 24.855C25.195 26.1617 25.3233 27.1767 25.51 27.9C25.79 28.95 26.175 29.7083 26.665 30.175C27.155 30.665 27.6917 30.91 28.275 30.91C29.3717 30.91 30.5033 30.2333 31.67 28.88C32.8367 27.5033 33.8633 25.625 34.75 23.245C35.03 23.245 35.17 23.35 35.17 23.56C34.33 25.7767 33.3967 27.5967 32.37 29.02C31.3433 30.4433 30.2933 31.4817 29.22 32.135C28.17 32.8117 27.19 33.15 26.28 33.15C25.4167 33.15 24.6583 32.835 24.005 32.205C23.375 31.575 22.9317 30.665 22.675 29.475C22.5817 29.0317 22.5117 28.4367 22.465 27.69C22.4183 26.92 22.395 25.9633 22.395 24.82C22.395 23.7467 22.4067 22.5917 22.43 21.355C22.4767 20.095 22.5117 18.8 22.535 17.47C20.0617 19.2433 17.6467 21.11 15.29 23.07C12.9333 25.03 10.7283 27.0833 8.675 29.23C6.645 31.3533 4.87167 33.5933 3.355 35.95C2.88833 36.6733 2.46833 37.175 2.095 37.455C1.72167 37.7583 1.40667 37.91 1.15 37.91ZM36.4475 21.468C36.7715 21.012 37.2155 20.634 37.7795 20.334C38.3555 20.022 39.0095 19.866 39.7415 19.866C40.5935 19.866 41.3615 20.076 42.0455 20.496C42.7415 20.916 43.2875 21.516 43.6835 22.296C44.0915 23.064 44.2955 23.958 44.2955 24.978C44.2955 25.998 44.0915 26.904 43.6835 27.696C43.2875 28.476 42.7415 29.082 42.0455 29.514C41.3615 29.946 40.5935 30.162 39.7415 30.162C39.0095 30.162 38.3615 30.012 37.7975 29.712C37.2455 29.412 36.7955 29.034 36.4475 28.578V34.752H33.9275V20.028H36.4475V21.468ZM41.7215 24.978C41.7215 24.378 41.5955 23.862 41.3435 23.43C41.1035 22.986 40.7795 22.65 40.3715 22.422C39.9755 22.194 39.5435 22.08 39.0755 22.08C38.6195 22.08 38.1875 22.2 37.7795 22.44C37.3835 22.668 37.0595 23.004 36.8075 23.448C36.5675 23.892 36.4475 24.414 36.4475 25.014C36.4475 25.614 36.5675 26.136 36.8075 26.58C37.0595 27.024 37.3835 27.366 37.7795 27.606C38.1875 27.834 38.6195 27.948 39.0755 27.948C39.5435 27.948 39.9755 27.828 40.3715 27.588C40.7795 27.348 41.1035 27.006 41.3435 26.562C41.5955 26.118 41.7215 25.59 41.7215 24.978ZM55.3968 24.798C55.3968 25.158 55.3728 25.482 55.3248 25.77H48.0348C48.0948 26.49 48.3468 27.054 48.7908 27.462C49.2348 27.87 49.7808 28.074 50.4288 28.074C51.3648 28.074 52.0308 27.672 52.4268 26.868H55.1448C54.8568 27.828 54.3048 28.62 53.4888 29.244C52.6728 29.856 51.6708 30.162 50.4828 30.162C49.5228 30.162 48.6588 29.952 47.8908 29.532C47.1348 29.1 46.5408 28.494 46.1088 27.714C45.6888 26.934 45.4788 26.034 45.4788 25.014C45.4788 23.982 45.6888 23.076 46.1088 22.296C46.5288 21.516 47.1168 20.916 47.8728 20.496C48.6288 20.076 49.4988 19.866 50.4828 19.866C51.4308 19.866 52.2768 20.07 53.0208 20.478C53.7768 20.886 54.3588 21.468 54.7668 22.224C55.1868 22.968 55.3968 23.826 55.3968 24.798ZM52.7868 24.078C52.7748 23.43 52.5408 22.914 52.0848 22.53C51.6288 22.134 51.0708 21.936 50.4108 21.936C49.7868 21.936 49.2588 22.128 48.8268 22.512C48.4068 22.884 48.1488 23.406 48.0528 24.078H52.7868ZM62.7621 19.884C63.9501 19.884 64.9101 20.262 65.6421 21.018C66.3741 21.762 66.7401 22.806 66.7401 24.15V30H64.2201V24.492C64.2201 23.7 64.0221 23.094 63.6261 22.674C63.2301 22.242 62.6901 22.026 62.0061 22.026C61.3101 22.026 60.7581 22.242 60.3501 22.674C59.9541 23.094 59.7561 23.7 59.7561 24.492V30H57.2361V20.028H59.7561V21.27C60.0921 20.838 60.5181 20.502 61.0341 20.262C61.5621 20.01 62.1381 19.884 62.7621 19.884ZM72.9525 30.162C72.1365 30.162 71.4045 30.018 70.7565 29.73C70.1085 29.43 69.5925 29.028 69.2085 28.524C68.8365 28.02 68.6325 27.462 68.5965 26.85H71.1345C71.1825 27.234 71.3685 27.552 71.6925 27.804C72.0285 28.056 72.4425 28.182 72.9345 28.182C73.4145 28.182 73.7865 28.086 74.0505 27.894C74.3265 27.702 74.4645 27.456 74.4645 27.156C74.4645 26.832 74.2965 26.592 73.9605 26.436C73.6365 26.268 73.1145 26.088 72.3945 25.896C71.6505 25.716 71.0385 25.53 70.5585 25.338C70.0905 25.146 69.6825 24.852 69.3345 24.456C68.9985 24.06 68.8305 23.526 68.8305 22.854C68.8305 22.302 68.9865 21.798 69.2985 21.342C69.6225 20.886 70.0785 20.526 70.6665 20.262C71.2665 19.998 71.9685 19.866 72.7725 19.866C73.9605 19.866 74.9085 20.166 75.6165 20.766C76.3245 21.354 76.7145 22.152 76.7865 23.16H74.3745C74.3385 22.764 74.1705 22.452 73.8705 22.224C73.5825 21.984 73.1925 21.864 72.7005 21.864C72.2445 21.864 71.8905 21.948 71.6385 22.116C71.3985 22.284 71.2785 22.518 71.2785 22.818C71.2785 23.154 71.4465 23.412 71.7825 23.592C72.1185 23.76 72.6405 23.934 73.3485 24.114C74.0685 24.294 74.6625 24.48 75.1305 24.672C75.5985 24.864 76.0005 25.164 76.3365 25.572C76.6845 25.968 76.8645 26.496 76.8765 27.156C76.8765 27.732 76.7145 28.248 76.3905 28.704C76.0785 29.16 75.6225 29.52 75.0225 29.784C74.4345 30.036 73.7445 30.162 72.9525 30.162ZM88.2151 24.798C88.2151 25.158 88.1911 25.482 88.1431 25.77H80.8531C80.9131 26.49 81.1651 27.054 81.6091 27.462C82.0531 27.87 82.5991 28.074 83.2471 28.074C84.1831 28.074 84.8491 27.672 85.2451 26.868H87.9631C87.6751 27.828 87.1231 28.62 86.3071 29.244C85.4911 29.856 84.4891 30.162 83.3011 30.162C82.3411 30.162 81.4771 29.952 80.7091 29.532C79.9531 29.1 79.3591 28.494 78.9271 27.714C78.5071 26.934 78.2971 26.034 78.2971 25.014C78.2971 23.982 78.5071 23.076 78.9271 22.296C79.3471 21.516 79.9351 20.916 80.6911 20.496C81.4471 20.076 82.3171 19.866 83.3011 19.866C84.2491 19.866 85.0951 20.07 85.8391 20.478C86.5951 20.886 87.1771 21.468 87.5851 22.224C88.0051 22.968 88.2151 23.826 88.2151 24.798ZM85.6051 24.078C85.5931 23.43 85.3591 22.914 84.9031 22.53C84.4471 22.134 83.8891 21.936 83.2291 21.936C82.6051 21.936 82.0771 22.128 81.6451 22.512C81.2251 22.884 80.9671 23.406 80.8711 24.078H85.6051Z" fill="#808080"/>
<path d="M100.58 43.45C102.89 43.45 105.002 42.9483 106.915 41.945C108.828 40.965 110.555 39.6233 112.095 37.92C113.658 36.1933 115.023 34.2683 116.19 32.145C116.937 30.7917 117.637 29.415 118.29 28.015C118.943 26.615 119.55 25.2967 120.11 24.06C120.67 22.8 121.172 21.715 121.615 20.805C122.058 19.895 122.432 19.2417 122.735 18.845C121.452 18.3783 119.97 17.97 118.29 17.62C116.633 17.2467 114.557 16.99 112.06 16.85C110.31 16.7567 108.747 16.955 107.37 17.445C106.017 17.935 104.862 18.6 103.905 19.44C102.972 20.2567 102.248 21.155 101.735 22.135C101.245 23.115 101 24.06 101 24.97C101 25.8333 101.198 26.545 101.595 27.105C101.992 27.6417 102.505 28.0383 103.135 28.295C103.788 28.5517 104.453 28.68 105.13 28.68C105.97 28.68 106.705 28.505 107.335 28.155C107.965 27.805 108.49 27.385 108.91 26.895C109.353 26.3817 109.68 25.9033 109.89 25.46C110.123 24.9933 110.24 24.655 110.24 24.445V24.41C110.357 24.27 110.473 24.2 110.59 24.2C110.823 24.2 110.94 24.3633 110.94 24.69C110.823 25.6933 110.462 26.5683 109.855 27.315C109.272 28.0617 108.56 28.6333 107.72 29.03C106.88 29.4267 105.993 29.625 105.06 29.625C104.103 29.625 103.182 29.3917 102.295 28.925C101.408 28.4583 100.685 27.7817 100.125 26.895C99.565 26.0083 99.285 24.935 99.285 23.675C99.285 22.6483 99.5067 21.6333 99.95 20.63C100.417 19.6033 101.105 18.67 102.015 17.83C102.948 16.9667 104.127 16.2783 105.55 15.765C106.973 15.2517 108.653 14.995 110.59 14.995C112.317 14.995 113.88 15.1583 115.28 15.485C116.703 15.8117 118.057 16.22 119.34 16.71C120.647 17.1767 121.965 17.6433 123.295 18.11C123.668 17.6433 124.1 17.2117 124.59 16.815C125.103 16.395 125.617 16.185 126.13 16.185C126.597 16.185 126.83 16.325 126.83 16.605C126.83 16.885 126.667 17.025 126.34 17.025C125.99 17.025 125.628 17.1767 125.255 17.48C124.882 17.76 124.555 18.075 124.275 18.425C125.932 18.9617 127.507 19.4283 129 19.825C130.517 20.1983 131.823 20.385 132.92 20.385C133.97 20.385 134.717 20.3033 135.16 20.14C135.627 19.9767 135.86 19.7083 135.86 19.335C135.86 19.195 135.883 19.0783 135.93 18.985C136 18.8683 136.117 18.81 136.28 18.81C136.397 18.81 136.478 18.915 136.525 19.125C136.572 19.3117 136.595 19.4633 136.595 19.58C136.595 20.14 136.292 20.595 135.685 20.945C135.102 21.295 134.367 21.47 133.48 21.47C132.71 21.47 131.777 21.365 130.68 21.155C129.607 20.945 128.463 20.6767 127.25 20.35C126.037 20 124.858 19.615 123.715 19.195C122.852 20.595 122.117 22.03 121.51 23.5C120.927 24.9467 120.378 26.405 119.865 27.875C119.375 29.345 118.85 30.7917 118.29 32.215C117.147 35.0617 115.758 37.3833 114.125 39.18C112.492 40.9533 110.555 42.2483 108.315 43.065C106.098 43.905 103.52 44.325 100.58 44.325C97.8967 44.325 95.61 43.9283 93.72 43.135C91.83 42.3417 90.3833 41.2683 89.38 39.915C88.4 38.5383 87.91 37.01 87.91 35.33C87.91 33.8833 88.1433 32.565 88.61 31.375C89.1 30.185 89.765 29.1933 90.605 28.4C91.4683 27.6067 92.4483 27.0817 93.545 26.825C93.7083 26.825 93.79 26.8833 93.79 27C93.79 27.1167 93.7317 27.21 93.615 27.28C92.4017 28.0033 91.4683 29.03 90.815 30.36C90.185 31.6667 89.87 33.0433 89.87 34.49C89.87 36.4033 90.3483 38.025 91.305 39.355C92.285 40.685 93.58 41.7 95.19 42.4C96.8233 43.1 98.62 43.45 100.58 43.45ZM123.404 32.576C123.728 32.048 124.148 31.634 124.664 31.334C125.192 31.034 125.792 30.884 126.464 30.884V33.53H125.798C125.006 33.53 124.406 33.716 123.998 34.088C123.602 34.46 123.404 35.108 123.404 36.032V41H120.884V31.028H123.404V32.576ZM127.513 35.978C127.513 34.97 127.711 34.076 128.107 33.296C128.515 32.516 129.061 31.916 129.745 31.496C130.441 31.076 131.215 30.866 132.067 30.866C132.811 30.866 133.459 31.016 134.011 31.316C134.575 31.616 135.025 31.994 135.361 32.45V31.028H137.899V41H135.361V39.542C135.037 40.01 134.587 40.4 134.011 40.712C133.447 41.012 132.793 41.162 132.049 41.162C131.209 41.162 130.441 40.946 129.745 40.514C129.061 40.082 128.515 39.476 128.107 38.696C127.711 37.904 127.513 36.998 127.513 35.978ZM135.361 36.014C135.361 35.402 135.241 34.88 135.001 34.448C134.761 34.004 134.437 33.668 134.029 33.44C133.621 33.2 133.183 33.08 132.715 33.08C132.247 33.08 131.815 33.194 131.419 33.422C131.023 33.65 130.699 33.986 130.447 34.43C130.207 34.862 130.087 35.378 130.087 35.978C130.087 36.578 130.207 37.106 130.447 37.562C130.699 38.006 131.023 38.348 131.419 38.588C131.827 38.828 132.259 38.948 132.715 38.948C133.183 38.948 133.621 38.834 134.029 38.606C134.437 38.366 134.761 38.03 135.001 37.598C135.241 37.154 135.361 36.626 135.361 36.014ZM146.264 41L142.88 36.752V41H140.36V27.68H142.88V35.258L146.228 31.028H149.504L145.112 36.032L149.54 41H146.264ZM150.224 35.978C150.224 34.97 150.422 34.076 150.818 33.296C151.226 32.516 151.772 31.916 152.456 31.496C153.152 31.076 153.926 30.866 154.778 30.866C155.522 30.866 156.17 31.016 156.722 31.316C157.286 31.616 157.736 31.994 158.072 32.45V31.028H160.61V41H158.072V39.542C157.748 40.01 157.298 40.4 156.722 40.712C156.158 41.012 155.504 41.162 154.76 41.162C153.92 41.162 153.152 40.946 152.456 40.514C151.772 40.082 151.226 39.476 150.818 38.696C150.422 37.904 150.224 36.998 150.224 35.978ZM158.072 36.014C158.072 35.402 157.952 34.88 157.712 34.448C157.472 34.004 157.148 33.668 156.74 33.44C156.332 33.2 155.894 33.08 155.426 33.08C154.958 33.08 154.526 33.194 154.13 33.422C153.734 33.65 153.41 33.986 153.158 34.43C152.918 34.862 152.798 35.378 152.798 35.978C152.798 36.578 152.918 37.106 153.158 37.562C153.41 38.006 153.734 38.348 154.13 38.588C154.538 38.828 154.97 38.948 155.426 38.948C155.894 38.948 156.332 38.834 156.74 38.606C157.148 38.366 157.472 38.03 157.712 37.598C157.952 37.154 158.072 36.626 158.072 36.014ZM162.423 35.978C162.423 34.97 162.621 34.076 163.017 33.296C163.425 32.516 163.971 31.916 164.655 31.496C165.351 31.076 166.125 30.866 166.977 30.866C167.721 30.866 168.369 31.016 168.921 31.316C169.485 31.616 169.935 31.994 170.271 32.45V31.028H172.809V41H170.271V39.542C169.947 40.01 169.497 40.4 168.921 40.712C168.357 41.012 167.703 41.162 166.959 41.162C166.119 41.162 165.351 40.946 164.655 40.514C163.971 40.082 163.425 39.476 163.017 38.696C162.621 37.904 162.423 36.998 162.423 35.978ZM170.271 36.014C170.271 35.402 170.151 34.88 169.911 34.448C169.671 34.004 169.347 33.668 168.939 33.44C168.531 33.2 168.093 33.08 167.625 33.08C167.157 33.08 166.725 33.194 166.329 33.422C165.933 33.65 165.609 33.986 165.357 34.43C165.117 34.862 164.997 35.378 164.997 35.978C164.997 36.578 165.117 37.106 165.357 37.562C165.609 38.006 165.933 38.348 166.329 38.588C166.737 38.828 167.169 38.948 167.625 38.948C168.093 38.948 168.531 38.834 168.939 38.606C169.347 38.366 169.671 38.03 169.911 37.598C170.151 37.154 170.271 36.626 170.271 36.014Z" fill="#53AE55"/>
</svg>
