<svg xmlns="http://www.w3.org/2000/svg" xml:space="preserve" width="4000" height="280" data-id="lg_wnbwSdwOmbX3rbfvfc" data-version="1" viewBox="0 0 2000 140"><g data-padding="20"><g transform="translate(10 2.5)scale(.96429)"><rect width="311.269" height="155.799" x="673.995" y="-78.066" fill="#1ba14d" paint-order="stroke" rx="19" ry="19" transform="matrix(.9 0 0 .9 140.16 70.15)"/><rect width="311.269" height="155.799" x="673.995" y="-78.066" fill="#255ce0" paint-order="stroke" rx="19" ry="19" transform="matrix(.9 0 0 .9 419.84 70.15)"/><rect width="538.65" height="107.35" x="477.341" y="-53.825" fill="none" rx="0" ry="0" transform="translate(279.19 70.45)"/><path fill="#fff" d="M773.066 33.12h56.08l.95 23.86h-1.8q-4.19-12.64-7.42-17.25t-9.31-4.61h-1.15v62.54h8.08v2h-34.69v-2h8.08V35.12h-1.24q-6.08 0-9.41 4.8t-7.32 17.06h-1.8Zm93.25 23.95q-3.52 0-6.18 4.57-2.66 4.56-2.66 10.83v25.48h6.75v1.71h-29.66v-1.71h5.23V56.12h-5.23v-1.71h22.91v9.13q1.23-4.85 4.75-7.46 3.52-2.62 7.99-2.62 4.46 0 7.27 2.52 2.8 2.52 2.8 7.13t-2.09 7.08-6.41 2.47q-4.33 0-6.37-2.85-2.05-2.85-.53-7.89h3.43q2.37-4.85-2-4.85m38.11 20.25h2.76V70q0-9.03-1-12.12t-3.85-3.09q-1.71 0-3.09.91-1.38.9-1.38 2.47t.57 3.18h2.38q.76 2 .76 4.8 0 2.81-2.38 4.85t-5.99 2.04q-8.17 0-8.17-7.89 0-11.69 19.86-11.69 11.32 0 15.64 3.85 4.33 3.85 4.33 14.12v19.29q0 4.95 2.75 4.95 3.23 0 3.81-9.79l1.42.09q-.38 8.37-3.14 11.5-2.75 3.14-9.03 3.14-11.4 0-13.11-7.03-1.24 3.61-3.71 5.32t-7.23 1.71q-14.07 0-14.07-11.5 0-6.75 5.38-9.27 5.37-2.52 16.49-2.52m-3.8 11.69q0 4.95.52 6.37.52 1.43 2 1.43 1.47 0 2.75-2.43 1.29-2.42 1.29-6.7v-8.84h-.67q-5.89 0-5.89 8.65Zm59.8-33.84q-4.18 0-5.99 4.57-1.81 4.56-1.81 15.11v4.94q0 9.41 2.09 13.5 2.1 4.09 7.7 4.09 5.61 0 8.94-3.8 3.33-3.81 4.28-8.65l1.71.19q-1.81 8.17-6.66 11.78-4.94 3.71-13.59 3.71-11.03 0-16.92-5.94t-5.89-17.4q0-11.45 6.7-17.63t18.68-6.18q8.46 0 12.93 3.28 4.46 3.28 4.46 8.22 0 4.95-2.14 7.23-2.13 2.28-5.89 2.28-3.75 0-6.04-2-2.28-1.99-2.28-5.89 0-1.71.48-3.42h3.14q.66-1.9.66-3.42 0-4.57-4.56-4.57m76.81 44.49h-26.43v-1.71h4.37l-10.74-22.05-1.81.47v21.58h4.38v1.71h-27.28v-1.71h5.22V30.08h-5.61v-1.71h23.29v46.1l1.53-.57 21.38-17.78h-8.93v-1.71h18.72v1.71h-6.65l-11.31 9.6 16.44 32.23h3.43Zm30.22-71.86q-3.61 0-4.75 2.7-1.14 2.71-1.14 8.7v15.21h12.55v1.71h-12.55v41.83h11.6v1.71h-34.51v-1.71h5.23V56.12h-5.51v-1.71h5.51v-.38q0-13.69 5.23-20.77t17.49-7.08q8.08 0 11.6 3.18 3.51 3.19 3.51 7.37t-2.18 6.28q-2.19 2.09-5.8 2.09t-5.56-1.86q-1.95-1.85-1.95-4.27 0-2.43.57-4.71h3.61q1.9-6.46-2.95-6.46"/><path fill="#fff" d="M1130.676 97.95v1.71h-21.67l-1.05-6.94q-1.52 3.8-4.52 5.85-2.99 2.04-8.88 2.04-14.74 0-14.74-15.87V56.12h-5.32v-1.71h23v32.61q0 5.7.81 7.51.81 1.8 3.23 1.8 2.43 0 4.33-2.94 1.9-2.95 1.9-8.18V56.12h-4.37v-1.71h22.05v43.54Zm2.08-41.83v-1.71h22.91v8.75q1.52-4.38 4.66-7.04 3.13-2.66 9.5-2.66 14.74 0 14.74 15.88v28.61h5.32v1.71h-26.9v-1.71h3.9V67.06q0-5.71-.76-7.37-.76-1.67-2.76-1.67-3.04 0-5.37 4-2.33 3.99-2.33 9.69v26.24h4.09v1.71h-27v-1.71h5.23V56.12Zm77.67 23.86q0 9.98 1.05 13.26 1.04 3.28 3.85 3.28 2.8 0 4.85-2.47 2.04-2.47 2.04-7.32V66.01q0-4.09-1.62-6.94-1.61-2.85-4.75-2.85t-4.28 4.18-1.14 14.64Zm34.13 19.68h-21.1l-1.05-6.65q-3.23 7.6-13.12 7.6-8.17 0-12.69-5.89-4.51-5.9-4.51-17.59 0-23.67 18.82-23.67 8.36 0 11.03 4.66V30.08h-5.8v-1.71h23.76v69.58h4.66Zm5.8.95h-1.14V83.6h1.14q2.47 8.27 6.65 11.59 4.19 3.33 10.46 3.33 9.69 0 9.69-6.18 0-2.66-2.37-3.99-3.71-2.09-9.51-3.23-6.46-1.71-10.83-4.57-5.23-3.42-5.23-10.83 0-7.42 4.56-11.84t12.17-4.42q4.66 0 9.6 2.19 1.81.76 2.76.76t1.61-.67q.67-.66 1.62-2.47h1.04v14.55h-1.14q-4.85-12.36-15.02-12.36-4.46 0-6.65 1.57-2.19 1.56-2.19 3.94 0 1.43.67 2.24.66.8 1.04 1.18t1.24.81 1.43.67q.57.23 1.75.61 1.19.38 1.76.48 6.47 1.62 9.32 2.8 2.85 1.19 5.42 2.9 5.23 3.62 5.23 11.65t-4.76 12.17q-4.75 4.13-13.02 4.13-5.89 0-11.41-2.76-1.14-.76-1.8-.76-2.1 0-4.09 3.52"/></g><path fill="transparent" stroke="transparent" d="M720 0h560v140H720z"/></g></svg>